<?xml version="1.0" encoding="UTF-8"?>
<!--
  Icon: bx-cycling
  Set: BoxIcons
  Author: Atisa (https://github.com/atisawd/boxicons)
  License: CC BY 4.0 (https://creativecommons.org/licenses/by/4.0/)
  Source: https://iconify.design
-->
<svg xmlns="http://www.w3.org/2000/svg"
     xmlns:xlink="http://www.w3.org/1999/xlink"
     viewBox="0 0 24 24"
     width="24"
     height="24">
  <title>Person Riding Bicycle</title>
  <metadata>
    <rdf:RDF xmlns:rdf="http://www.w3.org/1999/02/22-rdf-syntax-ns#"
             xmlns:dc="http://purl.org/dc/elements/1.1/"
             xmlns:cc="http://creativecommons.org/ns#">
      <cc:Work rdf:about="">
        <dc:title>Person Riding Bicycle</dc:title>
        <dc:description>A simple icon depicting a person riding a bicycle, suitable for use in various contexts such as transportation, recreation, or environmental themes.</dc:description>
        <dc:creator>
          <cc:Agent>
            <dc:title>Atisa</dc:title>
          </cc:Agent>
        </dc:creator>
        <dc:source>https://github.com/atisawd/boxicons</dc:source>
        <dc:rights>
          <cc:Agent>
            <dc:title>Atisa</dc:title>
          </cc:Agent>
        </dc:rights>
        <cc:license rdf:resource="https://creativecommons.org/licenses/by/4.0/"/>
        <dc:format>image/svg+xml</dc:format>
        <dc:type rdf:resource="http://purl.org/dc/dcmitype/StillImage"/>
        <dc:subject>
          <rdf:Bag>
            <rdf:li>bicycle</rdf:li>
            <rdf:li>bike</rdf:li>
            <rdf:li>cycling</rdf:li>
            <rdf:li>rider</rdf:li>
            <rdf:li>person</rdf:li>
            <rdf:li>transportation</rdf:li>
            <rdf:li>recreation</rdf:li>
            <rdf:li>environment</rdf:li>
            <rdf:li>eco-friendly</rdf:li>
            <rdf:li>commute</rdf:li>
            <rdf:li>exercise</rdf:li>
            <rdf:li>sport</rdf:li>
            <rdf:li>fitness</rdf:li>
            <rdf:li>travel</rdf:li>
            <rdf:li>adventure</rdf:li>
          </rdf:Bag>
        </dc:subject>
      </cc:Work>
      <cc:License rdf:about="https://creativecommons.org/licenses/by/4.0/">
        <dc:title>CC BY 4.0 (CC-BY-4.0)</dc:title>
      </cc:License>
    </rdf:RDF>
  </metadata>
  <path fill="currentColor" d="M11 15.414V20h2v-4.586c0-.526-.214-1.042-.586-1.414l-2-2L13 9.414l2 2c.372.372.888.586 1.414.586H20v-2h-3.586l-3.707-3.707a1 1 0 0 0-1.414 0L8 9.586c-.378.378-.586.88-.586 1.414s.208 1.036.586 1.414z"/><circle cx="16" cy="5" r="2" fill="currentColor"/><path fill="currentColor" d="M18 14c-2.206 0-4 1.794-4 4s1.794 4 4 4s4-1.794 4-4s-1.794-4-4-4m0 6c-1.103 0-2-.897-2-2s.897-2 2-2s2 .897 2 2s-.897 2-2 2M6 22c2.206 0 4-1.794 4-4s-1.794-4-4-4s-4 1.794-4 4s1.794 4 4 4m0-6c1.103 0 2 .897 2 2s-.897 2-2 2s-2-.897-2-2s.897-2 2-2"/>
</svg>