<svg xmlns="http://www.w3.org/2000/svg" xml:space="preserve" viewBox="0 0 512 512"><path d="M128 179.2c0 14.13-11.45 25.6-25.6 25.6-14.13 0-25.6-11.48-25.6-25.6C76.8 80.22 157.05 0 256 0c98.98 0 179.2 80.22 179.2 179.2v51.2c0 14.13-11.45 25.6-25.6 25.6-14.13 0-25.6-11.48-25.6-25.6v-51.2c0-70.7-57.3-128-128-128-70.68 0-128 57.3-128 128m76.8 76.8c0 14.13-11.45 25.6-25.6 25.6-14.13 0-25.6-11.48-25.6-25.6v-76.8c0-56.55 45.85-102.4 102.4-102.4 56.58 0 102.4 45.85 102.4 102.4 0 14.13-11.45 25.6-25.6 25.6-14.13 0-25.6-11.48-25.6-25.6 0-28.27-22.9-51.2-51.2-51.2-28.27 0-51.2 22.93-51.2 51.2zm-51.2 76.8c0-14.15 11.47-25.6 25.6-25.6 14.15 0 25.6 11.45 25.6 25.6 0 28.28 22.93 51.2 51.2 51.2 28.3 0 51.2-22.92 51.2-51.2V256c0-14.15 11.47-25.6 25.6-25.6 14.15 0 25.6 11.45 25.6 25.6v76.8c0 56.55-45.82 102.4-102.4 102.4-56.55 0-102.4-45.85-102.4-102.4m76.8-128c0-14.15 11.48-25.6 25.6-25.6 14.15 0 25.6 11.45 25.6 25.6v102.4c0 14.13-11.45 25.6-25.6 25.6-14.13 0-25.6-11.47-25.6-25.6zM76.8 281.6c0-14.15 11.47-25.6 25.6-25.6 14.15 0 25.6 11.45 25.6 25.6v51.2c0 70.7 57.32 128 128 128 70.7 0 128-57.3 128-128 0-14.15 11.48-25.6 25.6-25.6 14.15 0 25.6 11.45 25.6 25.6 0 98.98-80.23 179.2-179.2 179.2-98.95 0-179.2-80.23-179.2-179.2z"/></svg>