<svg xmlns="http://www.w3.org/2000/svg" viewBox="0 0 16 16" id="Person-Walking--Streamline-Font-Awesome" height="16" width="16">
  <desc>
    Person Walking Streamline Icon: https://streamlinehq.com
  </desc>
<!--! Font Awesome Free 6.5.2 by @fontawesome - https://fontawesome.com License - https://fontawesome.com/license/free (Icons: CC BY 4.0, Fonts: SIL OFL 1.1, Code: MIT License) Copyright 2024 Fonticons, Inc.-->
  <path d="M7.999855 1.63007c-0.00066 -1.1316599999999999 1.223985 -1.839665 2.204365 -1.274405 0.455525 0.262645 0.7360850000000001 0.7485900000000001 0.7357750000000001 1.274405 0.00066 1.131665 -1.223985 1.839665 -2.204365 1.274405 -0.455525 -0.26264 -0.7360850000000001 -0.7485850000000001 -0.7357750000000001 -1.274405Zm-1.02599 4.63379c-0.030625000000000003 0.01225 -0.05819 0.0245 -0.088815 0.036755l-0.24501499999999998 0.10719000000000001c-0.502275 0.223575 -0.8881650000000001 0.6492800000000001 -1.06274 1.1699350000000002l-0.079625 0.23888500000000001c-0.17151000000000002 0.514525 -0.72585 0.790165 -1.2403750000000002 0.6186550000000001s-0.790165 -0.72585 -0.6186550000000001 -1.2403750000000002l0.07963 -0.23888500000000001c0.34914 -1.044365 1.1209300000000002 -1.89578 2.12548 -2.3429300000000004l0.24501 -0.10719000000000001c0.6370300000000001 -0.281765 1.3261250000000002 -0.42877000000000004 2.02441 -0.42877000000000004 1.365945 0 2.59713 0.8207900000000001 3.1208400000000003 2.07954l0.47165 1.130115 0.655405 0.327705c0.48390000000000005 0.24195000000000003 0.67991 0.829975 0.43796 1.3138750000000001s-0.8299799999999999 0.67991 -1.3138750000000001 0.43796l-0.8207900000000001 -0.407335c-0.31545500000000004 -0.159255 -0.56353 -0.422645 -0.698285 -0.750345l-0.294015 -0.7044100000000001 -0.59109 2.0060350000000002 1.51601 1.6538300000000001c0.16538 0.18069500000000002 0.281765 0.398145 0.343015 0.6370300000000001l0.7044100000000001 2.8207000000000004c0.131695 0.523715 -0.18682 1.056615 -0.7135950000000001 1.1883100000000002s-1.056615 -0.18682 -1.1883100000000002 -0.7136l-0.6737850000000001 -2.6981900000000003 -2.16529 -2.361305c-0.45327500000000004 -0.49308500000000005 -0.62172 -1.182185 -0.45021000000000005 -1.8284l0.517585 -1.944785Zm-1.7702100000000003 6.085485 0.76566 -1.911095c0.064315 0.09188 0.13782000000000003 0.17763500000000002 0.21438500000000002 0.26339l1.2465000000000002 1.3598150000000002 -0.44408500000000006 1.10868c-0.073505 0.18376 -0.18376 0.35220500000000005 -0.32464000000000004 0.49308500000000005l-1.8896550000000003 1.8896550000000003c-0.38283 0.38283 -1.00455 0.38283 -1.38738 0s-0.38283 -1.004545 0 -1.38738l1.8192150000000002 -1.8161500000000002Z" fill="#000000" stroke-width="0.05"></path>
</svg>