<?xml version="1.0" encoding="UTF-8"?>
<svg version="1.1" xmlns="http://www.w3.org/2000/svg" width="512" height="512">
<path d="M0 0 C19.2045895 18.24989221 31.34716761 40.39229442 37.29174805 66.14770508 C37.52506836 67.08227539 37.75838867 68.0168457 37.9987793 68.97973633 C45.07798281 101.31998259 37.34032692 136.23299901 20.29174805 164.14770508 C0.34989968 194.06047762 -29.1803377 214.52293396 -64.39575195 221.89770508 C-98.75358715 228.07022572 -133.44633538 221.14750097 -162.70825195 202.14770508 C-166.19397961 199.63937745 -169.47075183 196.96711743 -172.70825195 194.14770508 C-173.5280957 193.4490332 -174.34793945 192.75036133 -175.19262695 192.03051758 C-201.07888671 169.44033437 -216.20135884 138.94833552 -219.39575195 104.77270508 C-219.51585109 102.89865815 -219.62138048 101.02358595 -219.70825195 99.14770508 C-219.74950195 98.39102539 -219.79075195 97.6343457 -219.83325195 96.85473633 C-220.6818936 66.03843666 -209.98631223 34.43277809 -189.70825195 11.14770508 C-189.00958008 10.32786133 -188.3109082 9.50801758 -187.59106445 8.66333008 C-168.8701078 -12.78915406 -145.4236954 -26.57219063 -117.70825195 -32.85229492 C-116.68086914 -33.08561523 -115.65348633 -33.31893555 -114.5949707 -33.55932617 C-111.96942505 -34.08747501 -109.36346618 -34.50492103 -106.70825195 -34.85229492 C-105.31413086 -35.03598633 -105.31413086 -35.03598633 -103.8918457 -35.22338867 C-65.34417601 -39.21107864 -28.21083254 -26.24526803 0 0 Z " fill="#000000" transform="translate(345.708251953125,161.852294921875)"/>
<path d="M0 0 C5.3542388 4.772783 8.53960519 10.55003702 9.28358459 17.74099731 C9.3952357 20.92342043 9.4158327 24.09299859 9.3984375 27.27734375 C9.40130768 28.44326553 9.40417786 29.60918732 9.40713501 30.81044006 C9.40916929 33.26710498 9.40368413 35.72378633 9.39111328 38.18041992 C9.37506611 41.92208427 9.39097723 45.66266608 9.41015625 49.40429688 C9.40817342 51.79948153 9.40432893 54.19466552 9.3984375 56.58984375 C9.40754654 58.25429787 9.40754654 58.25429787 9.4168396 59.95237732 C9.33606479 68.96066101 8.12335331 76.77924715 1.70703125 83.4921875 C-4.51618314 88.98912286 -10.44190864 89.65096243 -18.65625 89.37890625 C-24.97915848 88.66240844 -28.95405956 86.37242552 -33.3125 81.8125 C-39.10738903 74.19581213 -39.45828389 65.93996316 -39.43359375 56.66015625 C-39.44145653 54.91695351 -39.44145653 54.91695351 -39.44947815 53.13853455 C-39.45587338 50.69205521 -39.45459395 48.24554502 -39.44604492 45.79907227 C-39.43753333 42.07707452 -39.46633707 38.35661224 -39.49804688 34.63476562 C-39.4996592 32.24739629 -39.49908076 29.86002426 -39.49609375 27.47265625 C-39.50732773 26.37131851 -39.51856171 25.26998077 -39.53013611 24.13526917 C-39.45025525 15.18308171 -37.89886116 7.5357856 -31.375 1.0625 C-21.85571651 -6.40810653 -9.95224027 -6.92877487 0 0 Z " fill="#000000" transform="translate(271,423)"/>
<path d="M0 0 C6.24031983 3.8216948 9.72686541 8.91953623 11.8977356 15.8052063 C13.03087798 20.75778783 12.94705446 25.71812572 12.93359375 30.77734375 C12.9388356 31.93947891 12.94407745 33.10161407 12.94947815 34.29896545 C12.95587338 36.74544479 12.95459395 39.19195498 12.94604492 41.63842773 C12.93753333 45.36042548 12.96633707 49.08088776 12.99804688 52.80273438 C12.9996592 55.19010371 12.99908076 57.57747574 12.99609375 59.96484375 C13.01294472 61.61685036 13.01294472 61.61685036 13.03013611 63.30223083 C12.95025525 72.25441829 11.39886116 79.9017144 4.875 86.375 C-0.75216208 90.79112163 -6.9647359 92.85563735 -14.125 92.375 C-21.33405725 91.16713327 -26.42732418 88.10615625 -31.17578125 82.609375 C-35.65307055 75.26609225 -35.94433091 68.56135253 -35.8984375 60.16015625 C-35.90130768 58.99423447 -35.90417786 57.82831268 -35.90713501 56.62705994 C-35.90916929 54.17039502 -35.90368413 51.71371367 -35.89111328 49.25708008 C-35.87506611 45.51541573 -35.89097723 41.77483392 -35.91015625 38.03320312 C-35.90817342 35.63801847 -35.90432893 33.24283448 -35.8984375 30.84765625 C-35.90451019 29.73802017 -35.91058289 28.62838409 -35.9168396 27.48512268 C-35.83606479 18.47683899 -34.62335331 10.65825285 -28.20703125 3.9453125 C-20.6047874 -2.76971296 -9.363168 -4.15940732 0 0 Z " fill="#000000" transform="translate(267.5,1.5625)"/>
<path d="M0 0 C1.03167297 -0.00960754 2.06334595 -0.01921509 3.12628174 -0.02911377 C4.23155212 -0.03336365 5.33682251 -0.03761353 6.47558594 -0.04199219 C7.62355652 -0.04769226 8.7715271 -0.05339233 9.95428467 -0.05926514 C12.38178591 -0.06870169 14.80929989 -0.07524377 17.23681641 -0.07910156 C20.9325216 -0.08879522 24.62766769 -0.11982741 28.32324219 -0.15136719 C30.68652015 -0.15789901 33.04980207 -0.16314878 35.41308594 -0.16699219 C37.05884613 -0.18551239 37.05884613 -0.18551239 38.737854 -0.20440674 C47.73023354 -0.17856408 55.50390209 1.05182424 62.20214844 7.45410156 C67.6990838 13.67731595 68.36092336 19.60304146 68.08886719 27.81738281 C67.37236938 34.14029129 65.08238646 38.11519237 60.52246094 42.47363281 C52.95265963 48.23460339 44.7787058 48.61122001 35.55371094 48.55957031 C33.84024475 48.56387558 33.84024475 48.56387558 32.09216309 48.56826782 C29.68855287 48.57029991 27.28492579 48.56483027 24.88134766 48.55224609 C21.2209748 48.53618115 17.56170606 48.55212498 13.90136719 48.57128906 C11.55631269 48.56930648 9.21125887 48.5654625 6.86621094 48.55957031 C5.78158569 48.56564301 4.69696045 48.5717157 3.57946777 48.57797241 C-6.08427161 48.48936706 -13.51529229 46.80492795 -20.62988281 40.04394531 C-25.04090412 35.0413282 -26.43942759 28.69154564 -26.29003906 22.16113281 C-25.18624251 14.59895221 -21.98395977 9.21160406 -16.29003906 4.16113281 C-11.02610978 0.89749666 -6.11869169 0.0462514 0 0 Z " fill="#000000" transform="translate(444.2900390625,231.8388671875)"/>
<path d="M0 0 C1.14231079 -0.00287018 2.28462158 -0.00574036 3.46154785 -0.00869751 C5.86515807 -0.0107296 8.26878515 -0.00525996 10.67236328 0.00732422 C14.33273613 0.02338916 17.99200488 0.00744533 21.65234375 -0.01171875 C23.99739825 -0.00973617 26.34245207 -0.00589218 28.6875 0 C29.77212524 -0.00607269 30.85675049 -0.01214539 31.97424316 -0.0184021 C41.63798254 0.07020325 49.06900323 1.75464236 56.18359375 8.515625 C60.59461506 13.51824211 61.99313853 19.86802468 61.84375 26.3984375 C60.73995345 33.9606181 57.5376707 39.34796626 51.84375 44.3984375 C46.57982072 47.66207366 41.67240263 48.51331891 35.55371094 48.55957031 C34.52203796 48.56917786 33.49036499 48.5787854 32.4274292 48.58868408 C31.32215881 48.59293396 30.21688843 48.59718384 29.078125 48.6015625 C27.93015442 48.60726257 26.78218384 48.61296265 25.59942627 48.61883545 C23.17192503 48.628272 20.74441105 48.63481408 18.31689453 48.63867188 C14.62118934 48.64836553 10.92604325 48.67939773 7.23046875 48.7109375 C4.86719079 48.71746932 2.50390886 48.72271909 0.140625 48.7265625 C-0.95654846 48.7389093 -2.05372192 48.7512561 -3.18414307 48.76397705 C-12.1765226 48.73813439 -19.95019115 47.50774608 -26.6484375 41.10546875 C-32.14537286 34.88225436 -32.80721243 28.95652886 -32.53515625 20.7421875 C-31.81865844 14.41927902 -29.52867552 10.44437794 -24.96875 6.0859375 C-17.39894869 0.32496692 -9.22499487 -0.05164969 0 0 Z " fill="#000000" transform="translate(32.15625,231.6015625)"/>
<path d="M0 0 C1.18142578 -0.05607422 1.18142578 -0.05607422 2.38671875 -0.11328125 C11.45563567 1.20649438 17.33255916 6.57837483 23.58203125 12.8828125 C24.84716805 14.13721634 24.84716805 14.13721634 26.13786316 15.41696167 C27.90957559 17.18092401 29.67497333 18.9512492 31.43432617 20.72753906 C34.11532548 23.42775613 36.82435417 26.09735731 39.53710938 28.765625 C41.26219024 30.49041545 42.98555649 32.21692286 44.70703125 33.9453125 C45.51123001 34.73422882 46.31542877 35.52314514 47.14399719 36.33596802 C53.05158807 42.36686875 57.11327857 48.71928009 57.8125 57.3125 C57.35889225 64.32924481 54.70339465 70.45318097 49.5625 75.25 C44.1181861 79.52479462 38.48485587 81.99654754 31.42483521 81.65168762 C22.23756128 80.17644374 16.27968562 75.16411026 9.9453125 68.70703125 C9.10330292 67.86839035 8.26129333 67.02974945 7.39376831 66.16569519 C5.62695143 64.39858083 3.86753176 62.6240424 2.11523438 60.8425293 C-0.55651903 58.13106985 -3.25641649 55.45021763 -5.9609375 52.77148438 C-7.6814465 51.04341619 -9.40025563 49.31365356 -11.1171875 47.58203125 C-11.91824921 46.78795364 -12.71931091 45.99387604 -13.54464722 45.17573547 C-18.93088796 39.65280338 -22.80980509 34.24003124 -24.18359375 26.52734375 C-23.96007217 17.839805 -21.96679855 11.59179855 -15.6875 5.3125 C-10.69882816 1.80361396 -6.05453872 0.18524354 0 0 Z " fill="#000000" transform="translate(386.6875,362.6875)"/>
<path d="M0 0 C6.22319201 3.33960088 10.33613234 8.13017034 12.3984375 14.89453125 C12.85374828 17.17967594 13.05371597 19.33029414 13.125 21.66015625 C13.18107422 22.84158203 13.18107422 22.84158203 13.23828125 24.046875 C11.91850562 33.11579192 6.54662517 38.99271541 0.2421875 45.2421875 C-1.01221634 46.5073243 -1.01221634 46.5073243 -2.29196167 47.79801941 C-4.05592401 49.56973184 -5.8262492 51.33512958 -7.60253906 53.09448242 C-10.30275613 55.77548173 -12.97235731 58.48451042 -15.640625 61.19726562 C-17.36541545 62.92234649 -19.09192286 64.64571274 -20.8203125 66.3671875 C-21.60922882 67.17138626 -22.39814514 67.97558502 -23.21096802 68.80415344 C-29.24186875 74.71174432 -35.59428009 78.77343482 -44.1875 79.47265625 C-51.20424481 79.0190485 -57.32818097 76.3635509 -62.125 71.22265625 C-66.39979462 65.77834235 -68.87154754 60.14501212 -68.52668762 53.08499146 C-67.05144374 43.89771753 -62.03911026 37.93984187 -55.58203125 31.60546875 C-54.74339035 30.76345917 -53.90474945 29.92144958 -53.04069519 29.05392456 C-51.27358083 27.28710768 -49.4990424 25.52768801 -47.7175293 23.77539062 C-45.00606985 21.10363722 -42.32521763 18.40373976 -39.64648438 15.69921875 C-37.91841619 13.97870975 -36.18865356 12.25990062 -34.45703125 10.54296875 C-33.66295364 9.74190704 -32.86887604 8.94084534 -32.05073547 8.11550903 C-22.85248847 -0.8550834 -12.45344315 -5.39816588 0 0 Z " fill="#000000" transform="translate(136.1875,365.02734375)"/>
<path d="M0 0 C5.92432868 3.43495278 9.93584417 8.89282518 11.9609375 15.3984375 C13.60752447 22.8962889 11.9205455 28.71780932 8.3984375 35.390625 C5.79563153 38.79422338 2.84849463 41.76035173 -0.20703125 44.7578125 C-1.04567215 45.59982208 -1.88431305 46.44183167 -2.74836731 47.30935669 C-4.51548167 49.07617357 -6.2900201 50.83559324 -8.0715332 52.58789062 C-10.78299265 55.25964403 -13.46384487 57.95954149 -16.14257812 60.6640625 C-17.87064631 62.3845715 -19.60040894 64.10338063 -21.33203125 65.8203125 C-22.52314766 67.02190506 -22.52314766 67.02190506 -23.73832703 68.24777222 C-29.26125912 73.63401296 -34.67403126 77.51293009 -42.38671875 78.88671875 C-51.0742575 78.66319717 -57.32226395 76.66992355 -63.6015625 70.390625 C-67.11044854 65.40195316 -68.72881896 60.75766372 -68.9140625 54.703125 C-68.95144531 53.91550781 -68.98882812 53.12789062 -69.02734375 52.31640625 C-67.70756812 43.24748933 -62.33568767 37.37056584 -56.03125 31.12109375 C-54.77684616 29.85595695 -54.77684616 29.85595695 -53.49710083 28.56526184 C-51.73313849 26.79354941 -49.9628133 25.02815167 -48.18652344 23.26879883 C-45.48630637 20.58779952 -42.81670519 17.87877083 -40.1484375 15.16601562 C-38.42364705 13.44093476 -36.69713964 11.71756851 -34.96875 9.99609375 C-34.17983368 9.19189499 -33.39091736 8.38769623 -32.57809448 7.55912781 C-22.93696538 -1.88487548 -12.64309641 -5.52406059 0 0 Z " fill="#000000" transform="translate(431.6015625,70.609375)"/>
<path d="M0 0 C3.40359838 2.60280597 6.36972673 5.54994287 9.3671875 8.60546875 C10.20919708 9.44410965 11.05120667 10.28275055 11.91873169 11.14680481 C13.68554857 12.91391917 15.44496824 14.6884576 17.19726562 16.4699707 C19.86901903 19.18143015 22.56891649 21.86228237 25.2734375 24.54101562 C26.9939465 26.26908381 28.71275563 27.99884644 30.4296875 29.73046875 C31.23074921 30.52454636 32.03181091 31.31862396 32.85714722 32.13676453 C38.24338796 37.65969662 42.12230509 43.07246876 43.49609375 50.78515625 C43.27257217 59.472695 41.27929855 65.72070145 35 72 C30.01132816 75.50888604 25.36703872 77.12725646 19.3125 77.3125 C18.13107422 77.36857422 18.13107422 77.36857422 16.92578125 77.42578125 C7.85686433 76.10600562 1.97994084 70.73412517 -4.26953125 64.4296875 C-5.53466805 63.17528366 -5.53466805 63.17528366 -6.82536316 61.89553833 C-8.59707559 60.13157599 -10.36247333 58.3612508 -12.12182617 56.58496094 C-14.80282548 53.88474387 -17.51185417 51.21514269 -20.22460938 48.546875 C-21.94969024 46.82208455 -23.67305649 45.09557714 -25.39453125 43.3671875 C-26.19873001 42.57827118 -27.00292877 41.78935486 -27.83149719 40.97653198 C-33.73908807 34.94563125 -37.80077857 28.59321991 -38.5 20 C-38.04639225 12.98325519 -35.39089465 6.85931903 -30.25 2.0625 C-20.53686305 -5.56411123 -10.75015809 -5.67424902 0 0 Z " fill="#000000" transform="translate(106,72)"/>
</svg>
