<?xml version="1.0" encoding="UTF-8"?>
<svg version="1.1" xmlns="http://www.w3.org/2000/svg" width="256" height="256">
<path d="M0 0 C0.74523926 0.20367188 1.49047852 0.40734375 2.25830078 0.6171875 C19.40558291 5.38297726 35.3572878 13.54660863 49 25 C49.85722656 25.71800781 50.71445313 26.43601562 51.59765625 27.17578125 C73.0779108 45.86725468 89.11559826 71.69023717 91.26611328 100.57421875 C92.70936366 131.86742465 85.98585413 160.08032542 64.78686523 183.89941406 C62.57116992 186.31319246 60.28898589 188.65552354 58 191 C57.33484375 191.72703125 56.6696875 192.4540625 55.984375 193.203125 C49.53811553 200.08274645 41.64923115 205.38118732 33.484375 210.03125 C31.79054687 211.00578125 31.79054687 211.00578125 30.0625 212 C29.04285156 212.556875 28.02320313 213.11375 26.97265625 213.6875 C19.22346468 219.71578043 15.35663064 229.85336762 11.05664062 238.44726562 C8.48647714 243.48156878 6.06556757 248.02668194 2 252 C0.68 252 -0.64 252 -2 252 C-2 231.21 -2 210.42 -2 189 C4.27 185.7 10.54 182.4 17 179 C20.65769702 176.36974597 23.76221787 174.01807548 27 171 C27.825 170.26523438 28.65 169.53046875 29.5 168.7734375 C44.23144219 154.98516692 52.72988799 136.44186101 54.28515625 116.30859375 C54.80672264 94.5615428 47.18200287 74.06882251 32.25268555 58.22753906 C14.88454443 40.40892743 -8.64696882 30.00243541 -33.58618164 29.61962891 C-61.49529498 29.66999397 -85.96604404 38.00214126 -106 58 C-106.62261719 58.61101563 -107.24523437 59.22203125 -107.88671875 59.8515625 C-121.75084677 74.49457411 -128.819088 95.55024036 -128.28125 115.47265625 C-126.46846421 138.20801132 -116.63738624 157.49456299 -99.64306641 172.63183594 C-91.30689686 179.57327638 -81.6683484 184.1658258 -72 189 C-72 209.79 -72 230.58 -72 252 C-78.48537837 250.70292433 -80.23273781 248.19026734 -84 243 C-86.924734 238.28335151 -89.49584279 233.38371096 -92.10546875 228.48828125 C-96.80794168 219.86897858 -101.50192771 212.90910789 -110.25 208.0625 C-136.18535615 192.79769038 -154.7970715 168.03679405 -162.49658203 139.01269531 C-162.66270996 138.34850586 -162.82883789 137.68431641 -163 137 C-163.2781958 135.90703613 -163.2781958 135.90703613 -163.56201172 134.79199219 C-170.03208267 106.49913954 -163.22316995 76.27751492 -148 52 C-130.28129408 25.96813621 -104.22452316 8.26028049 -74 0 C-73.27925293 -0.20882813 -72.55850586 -0.41765625 -71.81591797 -0.6328125 C-49.45086438 -6.92189542 -22.25023186 -6.44674726 0 0 Z " fill="#000000" transform="translate(165,4)"/>
<path d="M0 0 C8.82704203 7.09146388 14.01741653 16.35428755 15.41796875 27.54296875 C16.06818873 39.10062895 12.20036523 48.93457845 4.85546875 57.79296875 C-2.86298472 65.95865972 -10.30438948 68.25480831 -21.45703125 71.04296875 C-21.45703125 104.04296875 -21.45703125 137.04296875 -21.45703125 171.04296875 C-26.73703125 171.04296875 -32.01703125 171.04296875 -37.45703125 171.04296875 C-37.45703125 138.04296875 -37.45703125 105.04296875 -37.45703125 71.04296875 C-41.41703125 70.05296875 -45.37703125 69.06296875 -49.45703125 68.04296875 C-60.26723493 63.09896565 -68.41907154 54.6064347 -72.609375 43.484375 C-75.17075329 33.08541522 -74.70697478 21.51666288 -69.45703125 12.04296875 C-62.96605017 1.7032177 -53.53991949 -4.79754206 -41.890625 -8.296875 C-26.7323057 -11.21127314 -12.84949232 -8.69612106 0 0 Z " fill="#000000" transform="translate(157.45703125,84.95703125)"/>
</svg>
